# xmcd
#
# Track frame offsets:
#	150
#	16080
#	29500
#	41810
#	54510
#	70270
#	85385
#	102305
#	118045
#	131945
#	144935
#	160575
#	175245
#	186235
#
# Disc length: 2717 seconds
#
# Revision: 1
# Processed by: cddbd v1.5.1PL2 Copyright (c) Steve Scherf et al.
# Submitted via: audiograbber 1.83.01
#
DISCID=c10a9b0e
DTITLE=Vários - Peão de Rodeio
DYEAR=1900
DGENRE=Sertanejo
TTITLE0=Teodoro e Sampaio - O Grande Momento
TTITLE1=João Mulato e Pardinho - Pagode do Tubarão
TTITLE2=Barrerito - Gaiteiro Amigo
TTITLE3=Teodoro e Sampaio - O Machão Chorou
TTITLE4=Chrystian e Ralf - Peão da Cidade
TTITLE5=Paulo Cesar e Adriano - O Cowboy
TTITLE6=Teodoro e Sampaio - Cidade Grande
TTITLE7=Lourenço e Lourival - Simplesmente Boiadeiro
TTITLE8=Chrystian e Ralf - Pagode em Brasilia
TTITLE9=Gilberto e Gilmar - Ninho de Cobra
TTITLE10=João Mulato e Pardinho - Peão de Rodeio
TTITLE11=Lourenço e Lourival - Amor Distante
TTITLE12=Teodoro e Sampaio - Garanhão da Madrugada
TTITLE13=Gilberto e Gilmar - Musica da Saudade
EXTD=
EXTT0=
EXTT1=
EXTT2=
EXTT3=
EXTT4=
EXTT5=
EXTT6=
EXTT7=
EXTT8=
EXTT9=
EXTT10=
EXTT11=
EXTT12=
EXTT13=
PLAYORDER=
